<mxfile host="app.diagrams.net" modified="2021-05-06T06:59:59.434Z" agent="5.0 (Windows NT 10.0; Win64; x64) AppleWebKit/537.36 (KHTML, like Gecko) Chrome/88.0.4324.190 Safari/537.36" etag="3Hbdzai34QFr7E23MxF2" version="14.6.10" type="github">
  <diagram id="ewSjzQo0AmuXFX-6hgDm" name="Page-1">
    <mxGraphModel dx="1038" dy="548" grid="0" gridSize="10" guides="1" tooltips="1" connect="1" arrows="1" fold="1" page="1" pageScale="1" pageWidth="3300" pageHeight="4681" background="none" math="0" shadow="0">
      <root>
        <mxCell id="0" />
        <mxCell id="1" parent="0" />
        <mxCell id="8DN94r87sWfCBdkwbbwG-13" style="rounded=0;orthogonalLoop=1;jettySize=auto;html=1;exitX=0;exitY=1;exitDx=0;exitDy=0;" edge="1" parent="1" source="8DN94r87sWfCBdkwbbwG-1" target="8DN94r87sWfCBdkwbbwG-3">
          <mxGeometry relative="1" as="geometry" />
        </mxCell>
        <mxCell id="8DN94r87sWfCBdkwbbwG-14" style="edgeStyle=none;rounded=0;orthogonalLoop=1;jettySize=auto;html=1;exitX=1;exitY=1;exitDx=0;exitDy=0;entryX=0;entryY=0;entryDx=0;entryDy=0;" edge="1" parent="1" source="8DN94r87sWfCBdkwbbwG-1" target="8DN94r87sWfCBdkwbbwG-5">
          <mxGeometry relative="1" as="geometry" />
        </mxCell>
        <mxCell id="8DN94r87sWfCBdkwbbwG-1" value="10" style="rounded=0;whiteSpace=wrap;html=1;" vertex="1" parent="1">
          <mxGeometry x="395" y="63" width="62" height="30" as="geometry" />
        </mxCell>
        <mxCell id="8DN94r87sWfCBdkwbbwG-15" style="edgeStyle=none;rounded=0;orthogonalLoop=1;jettySize=auto;html=1;exitX=0;exitY=1;exitDx=0;exitDy=0;entryX=0.5;entryY=0;entryDx=0;entryDy=0;" edge="1" parent="1" source="8DN94r87sWfCBdkwbbwG-3" target="8DN94r87sWfCBdkwbbwG-6">
          <mxGeometry relative="1" as="geometry" />
        </mxCell>
        <mxCell id="8DN94r87sWfCBdkwbbwG-16" style="edgeStyle=none;rounded=0;orthogonalLoop=1;jettySize=auto;html=1;exitX=1;exitY=1;exitDx=0;exitDy=0;entryX=0;entryY=0;entryDx=0;entryDy=0;" edge="1" parent="1" source="8DN94r87sWfCBdkwbbwG-3" target="8DN94r87sWfCBdkwbbwG-8">
          <mxGeometry relative="1" as="geometry" />
        </mxCell>
        <mxCell id="8DN94r87sWfCBdkwbbwG-3" value="5" style="rounded=0;whiteSpace=wrap;html=1;" vertex="1" parent="1">
          <mxGeometry x="204" y="150" width="62" height="30" as="geometry" />
        </mxCell>
        <mxCell id="8DN94r87sWfCBdkwbbwG-17" style="edgeStyle=none;rounded=0;orthogonalLoop=1;jettySize=auto;html=1;exitX=0;exitY=1;exitDx=0;exitDy=0;entryX=0;entryY=0;entryDx=0;entryDy=0;" edge="1" parent="1" source="8DN94r87sWfCBdkwbbwG-4" target="8DN94r87sWfCBdkwbbwG-10">
          <mxGeometry relative="1" as="geometry" />
        </mxCell>
        <mxCell id="8DN94r87sWfCBdkwbbwG-4" value="12" style="rounded=0;whiteSpace=wrap;html=1;" vertex="1" parent="1">
          <mxGeometry x="558" y="150" width="62" height="30" as="geometry" />
        </mxCell>
        <mxCell id="8DN94r87sWfCBdkwbbwG-18" style="edgeStyle=none;rounded=0;orthogonalLoop=1;jettySize=auto;html=1;exitX=0;exitY=1;exitDx=0;exitDy=0;entryX=0.5;entryY=0;entryDx=0;entryDy=0;" edge="1" parent="1" source="8DN94r87sWfCBdkwbbwG-5" target="8DN94r87sWfCBdkwbbwG-11">
          <mxGeometry relative="1" as="geometry" />
        </mxCell>
        <mxCell id="8DN94r87sWfCBdkwbbwG-19" style="edgeStyle=none;rounded=0;orthogonalLoop=1;jettySize=auto;html=1;exitX=1;exitY=1;exitDx=0;exitDy=0;entryX=0.5;entryY=0;entryDx=0;entryDy=0;" edge="1" parent="1" source="8DN94r87sWfCBdkwbbwG-5" target="8DN94r87sWfCBdkwbbwG-12">
          <mxGeometry relative="1" as="geometry" />
        </mxCell>
        <mxCell id="8DN94r87sWfCBdkwbbwG-5" value="15" style="rounded=0;whiteSpace=wrap;html=1;" vertex="1" parent="1">
          <mxGeometry x="620" y="150" width="62" height="30" as="geometry" />
        </mxCell>
        <mxCell id="8DN94r87sWfCBdkwbbwG-6" value="2" style="rounded=0;whiteSpace=wrap;html=1;" vertex="1" parent="1">
          <mxGeometry x="116" y="256" width="62" height="30" as="geometry" />
        </mxCell>
        <mxCell id="8DN94r87sWfCBdkwbbwG-7" value="7" style="rounded=0;whiteSpace=wrap;html=1;" vertex="1" parent="1">
          <mxGeometry x="245" y="256" width="62" height="30" as="geometry" />
        </mxCell>
        <mxCell id="8DN94r87sWfCBdkwbbwG-8" value="9" style="rounded=0;whiteSpace=wrap;html=1;" vertex="1" parent="1">
          <mxGeometry x="307" y="256" width="62" height="30" as="geometry" />
        </mxCell>
        <mxCell id="8DN94r87sWfCBdkwbbwG-9" value="9" style="rounded=0;whiteSpace=wrap;html=1;" vertex="1" parent="1">
          <mxGeometry x="424" y="254" width="62" height="30" as="geometry" />
        </mxCell>
        <mxCell id="8DN94r87sWfCBdkwbbwG-10" value="11" style="rounded=0;whiteSpace=wrap;html=1;" vertex="1" parent="1">
          <mxGeometry x="483" y="254" width="62" height="30" as="geometry" />
        </mxCell>
        <mxCell id="8DN94r87sWfCBdkwbbwG-11" value="13" style="rounded=0;whiteSpace=wrap;html=1;" vertex="1" parent="1">
          <mxGeometry x="590" y="254" width="62" height="30" as="geometry" />
        </mxCell>
        <mxCell id="8DN94r87sWfCBdkwbbwG-12" value="18" style="rounded=0;whiteSpace=wrap;html=1;" vertex="1" parent="1">
          <mxGeometry x="716" y="254" width="62" height="30" as="geometry" />
        </mxCell>
        <mxCell id="8DN94r87sWfCBdkwbbwG-20" value="20" style="rounded=0;whiteSpace=wrap;html=1;" vertex="1" parent="1">
          <mxGeometry x="192" y="369" width="62" height="30" as="geometry" />
        </mxCell>
        <mxCell id="8DN94r87sWfCBdkwbbwG-21" value="30" style="rounded=0;whiteSpace=wrap;html=1;" vertex="1" parent="1">
          <mxGeometry x="254" y="369" width="62" height="30" as="geometry" />
        </mxCell>
        <mxCell id="8DN94r87sWfCBdkwbbwG-22" value="20" style="rounded=0;whiteSpace=wrap;html=1;" vertex="1" parent="1">
          <mxGeometry x="369" y="369" width="62" height="30" as="geometry" />
        </mxCell>
        <mxCell id="8DN94r87sWfCBdkwbbwG-23" value="30" style="rounded=0;whiteSpace=wrap;html=1;" vertex="1" parent="1">
          <mxGeometry x="431" y="369" width="62" height="30" as="geometry" />
        </mxCell>
        <mxCell id="8DN94r87sWfCBdkwbbwG-24" value="50" style="rounded=0;whiteSpace=wrap;html=1;" vertex="1" parent="1">
          <mxGeometry x="493" y="369" width="62" height="30" as="geometry" />
        </mxCell>
        <mxCell id="8DN94r87sWfCBdkwbbwG-25" value="20" style="rounded=0;whiteSpace=wrap;html=1;" vertex="1" parent="1">
          <mxGeometry x="639" y="410" width="62" height="30" as="geometry" />
        </mxCell>
        <mxCell id="8DN94r87sWfCBdkwbbwG-28" style="edgeStyle=none;rounded=0;orthogonalLoop=1;jettySize=auto;html=1;exitX=0.5;exitY=1;exitDx=0;exitDy=0;entryX=0.5;entryY=0;entryDx=0;entryDy=0;" edge="1" parent="1" source="8DN94r87sWfCBdkwbbwG-26" target="8DN94r87sWfCBdkwbbwG-25">
          <mxGeometry relative="1" as="geometry" />
        </mxCell>
        <mxCell id="8DN94r87sWfCBdkwbbwG-29" style="edgeStyle=none;rounded=0;orthogonalLoop=1;jettySize=auto;html=1;exitX=0.5;exitY=1;exitDx=0;exitDy=0;entryX=0.5;entryY=0;entryDx=0;entryDy=0;" edge="1" parent="1" source="8DN94r87sWfCBdkwbbwG-26" target="8DN94r87sWfCBdkwbbwG-27">
          <mxGeometry relative="1" as="geometry" />
        </mxCell>
        <mxCell id="8DN94r87sWfCBdkwbbwG-26" value="30" style="rounded=0;whiteSpace=wrap;html=1;" vertex="1" parent="1">
          <mxGeometry x="701" y="343" width="62" height="30" as="geometry" />
        </mxCell>
        <mxCell id="8DN94r87sWfCBdkwbbwG-27" value="50" style="rounded=0;whiteSpace=wrap;html=1;" vertex="1" parent="1">
          <mxGeometry x="763" y="410" width="62" height="30" as="geometry" />
        </mxCell>
        <mxCell id="8DN94r87sWfCBdkwbbwG-34" value="" style="html=1;shadow=0;dashed=0;align=center;verticalAlign=middle;shape=mxgraph.arrows2.arrow;dy=0.65;dx=22.4;notch=0;fillColor=#ffffff;" vertex="1" parent="1">
          <mxGeometry x="572" y="373" width="75" height="21" as="geometry" />
        </mxCell>
        <mxCell id="8DN94r87sWfCBdkwbbwG-35" value="20" style="rounded=0;whiteSpace=wrap;html=1;" vertex="1" parent="1">
          <mxGeometry x="902" y="410" width="62" height="30" as="geometry" />
        </mxCell>
        <mxCell id="8DN94r87sWfCBdkwbbwG-36" style="edgeStyle=none;rounded=0;orthogonalLoop=1;jettySize=auto;html=1;exitX=0.5;exitY=1;exitDx=0;exitDy=0;entryX=0.5;entryY=0;entryDx=0;entryDy=0;" edge="1" parent="1" source="8DN94r87sWfCBdkwbbwG-38" target="8DN94r87sWfCBdkwbbwG-35">
          <mxGeometry relative="1" as="geometry" />
        </mxCell>
        <mxCell id="8DN94r87sWfCBdkwbbwG-37" style="edgeStyle=none;rounded=0;orthogonalLoop=1;jettySize=auto;html=1;exitX=0.5;exitY=1;exitDx=0;exitDy=0;entryX=0.5;entryY=0;entryDx=0;entryDy=0;" edge="1" parent="1" source="8DN94r87sWfCBdkwbbwG-38" target="8DN94r87sWfCBdkwbbwG-39">
          <mxGeometry relative="1" as="geometry" />
        </mxCell>
        <mxCell id="8DN94r87sWfCBdkwbbwG-38" value="30" style="rounded=0;whiteSpace=wrap;html=1;" vertex="1" parent="1">
          <mxGeometry x="964" y="343" width="62" height="30" as="geometry" />
        </mxCell>
        <mxCell id="8DN94r87sWfCBdkwbbwG-39" value="50" style="rounded=0;whiteSpace=wrap;html=1;" vertex="1" parent="1">
          <mxGeometry x="1026" y="410" width="62" height="30" as="geometry" />
        </mxCell>
        <mxCell id="8DN94r87sWfCBdkwbbwG-40" value="52" style="rounded=0;whiteSpace=wrap;html=1;" vertex="1" parent="1">
          <mxGeometry x="1088" y="410" width="62" height="30" as="geometry" />
        </mxCell>
        <mxCell id="8DN94r87sWfCBdkwbbwG-41" value="20" style="rounded=0;whiteSpace=wrap;html=1;" vertex="1" parent="1">
          <mxGeometry x="1194" y="410" width="62" height="30" as="geometry" />
        </mxCell>
        <mxCell id="8DN94r87sWfCBdkwbbwG-42" style="edgeStyle=none;rounded=0;orthogonalLoop=1;jettySize=auto;html=1;exitX=0.5;exitY=1;exitDx=0;exitDy=0;entryX=0.5;entryY=0;entryDx=0;entryDy=0;" edge="1" parent="1" source="8DN94r87sWfCBdkwbbwG-44" target="8DN94r87sWfCBdkwbbwG-41">
          <mxGeometry relative="1" as="geometry" />
        </mxCell>
        <mxCell id="8DN94r87sWfCBdkwbbwG-43" style="edgeStyle=none;rounded=0;orthogonalLoop=1;jettySize=auto;html=1;exitX=0.5;exitY=1;exitDx=0;exitDy=0;entryX=0.5;entryY=0;entryDx=0;entryDy=0;" edge="1" parent="1" source="8DN94r87sWfCBdkwbbwG-44" target="8DN94r87sWfCBdkwbbwG-45">
          <mxGeometry relative="1" as="geometry" />
        </mxCell>
        <mxCell id="8DN94r87sWfCBdkwbbwG-44" value="30" style="rounded=0;whiteSpace=wrap;html=1;" vertex="1" parent="1">
          <mxGeometry x="1256" y="343" width="62" height="30" as="geometry" />
        </mxCell>
        <mxCell id="8DN94r87sWfCBdkwbbwG-45" value="50" style="rounded=0;whiteSpace=wrap;html=1;" vertex="1" parent="1">
          <mxGeometry x="1318" y="410" width="62" height="30" as="geometry" />
        </mxCell>
        <mxCell id="8DN94r87sWfCBdkwbbwG-46" value="52" style="rounded=0;whiteSpace=wrap;html=1;" vertex="1" parent="1">
          <mxGeometry x="1380" y="410" width="62" height="30" as="geometry" />
        </mxCell>
        <mxCell id="8DN94r87sWfCBdkwbbwG-47" value="60" style="rounded=0;whiteSpace=wrap;html=1;" vertex="1" parent="1">
          <mxGeometry x="1442" y="410" width="62" height="30" as="geometry" />
        </mxCell>
        <mxCell id="8DN94r87sWfCBdkwbbwG-48" value="20" style="rounded=0;whiteSpace=wrap;html=1;" vertex="1" parent="1">
          <mxGeometry x="1565" y="410" width="62" height="30" as="geometry" />
        </mxCell>
        <mxCell id="8DN94r87sWfCBdkwbbwG-75" style="edgeStyle=none;rounded=0;orthogonalLoop=1;jettySize=auto;html=1;exitX=0;exitY=1;exitDx=0;exitDy=0;entryX=0.5;entryY=0;entryDx=0;entryDy=0;" edge="1" parent="1" source="8DN94r87sWfCBdkwbbwG-51" target="8DN94r87sWfCBdkwbbwG-48">
          <mxGeometry relative="1" as="geometry" />
        </mxCell>
        <mxCell id="8DN94r87sWfCBdkwbbwG-51" value="30" style="rounded=0;whiteSpace=wrap;html=1;" vertex="1" parent="1">
          <mxGeometry x="1616" y="343" width="62" height="30" as="geometry" />
        </mxCell>
        <mxCell id="8DN94r87sWfCBdkwbbwG-52" value="50" style="rounded=0;whiteSpace=wrap;html=1;" vertex="1" parent="1">
          <mxGeometry x="1647" y="410" width="62" height="30" as="geometry" />
        </mxCell>
        <mxCell id="8DN94r87sWfCBdkwbbwG-77" style="edgeStyle=none;rounded=0;orthogonalLoop=1;jettySize=auto;html=1;exitX=0;exitY=1;exitDx=0;exitDy=0;entryX=0.5;entryY=0;entryDx=0;entryDy=0;" edge="1" parent="1" source="8DN94r87sWfCBdkwbbwG-53" target="8DN94r87sWfCBdkwbbwG-52">
          <mxGeometry relative="1" as="geometry" />
        </mxCell>
        <mxCell id="8DN94r87sWfCBdkwbbwG-78" style="edgeStyle=none;rounded=0;orthogonalLoop=1;jettySize=auto;html=1;exitX=1;exitY=1;exitDx=0;exitDy=0;entryX=0.5;entryY=0;entryDx=0;entryDy=0;" edge="1" parent="1" source="8DN94r87sWfCBdkwbbwG-53" target="8DN94r87sWfCBdkwbbwG-54">
          <mxGeometry relative="1" as="geometry" />
        </mxCell>
        <mxCell id="8DN94r87sWfCBdkwbbwG-53" value="52" style="rounded=0;whiteSpace=wrap;html=1;" vertex="1" parent="1">
          <mxGeometry x="1678" y="343" width="62" height="30" as="geometry" />
        </mxCell>
        <mxCell id="8DN94r87sWfCBdkwbbwG-54" value="60" style="rounded=0;whiteSpace=wrap;html=1;" vertex="1" parent="1">
          <mxGeometry x="1740" y="410" width="62" height="30" as="geometry" />
        </mxCell>
        <mxCell id="8DN94r87sWfCBdkwbbwG-58" value="" style="html=1;shadow=0;dashed=0;align=center;verticalAlign=middle;shape=mxgraph.arrows2.arrow;dy=0.65;dx=22.4;notch=0;fillColor=#ffffff;" vertex="1" parent="1">
          <mxGeometry x="1493" y="361" width="75" height="21" as="geometry" />
        </mxCell>
        <mxCell id="8DN94r87sWfCBdkwbbwG-66" value="68" style="rounded=0;whiteSpace=wrap;html=1;" vertex="1" parent="1">
          <mxGeometry x="2097" y="410" width="62" height="30" as="geometry" />
        </mxCell>
        <mxCell id="8DN94r87sWfCBdkwbbwG-79" value="20" style="rounded=0;whiteSpace=wrap;html=1;" vertex="1" parent="1">
          <mxGeometry x="1860" y="410" width="62" height="30" as="geometry" />
        </mxCell>
        <mxCell id="8DN94r87sWfCBdkwbbwG-80" style="edgeStyle=none;rounded=0;orthogonalLoop=1;jettySize=auto;html=1;exitX=0;exitY=1;exitDx=0;exitDy=0;entryX=0.5;entryY=0;entryDx=0;entryDy=0;" edge="1" parent="1" source="8DN94r87sWfCBdkwbbwG-81" target="8DN94r87sWfCBdkwbbwG-79">
          <mxGeometry relative="1" as="geometry" />
        </mxCell>
        <mxCell id="8DN94r87sWfCBdkwbbwG-81" value="30" style="rounded=0;whiteSpace=wrap;html=1;" vertex="1" parent="1">
          <mxGeometry x="1911" y="343" width="62" height="30" as="geometry" />
        </mxCell>
        <mxCell id="8DN94r87sWfCBdkwbbwG-82" value="50" style="rounded=0;whiteSpace=wrap;html=1;" vertex="1" parent="1">
          <mxGeometry x="1942" y="410" width="62" height="30" as="geometry" />
        </mxCell>
        <mxCell id="8DN94r87sWfCBdkwbbwG-83" style="edgeStyle=none;rounded=0;orthogonalLoop=1;jettySize=auto;html=1;exitX=0;exitY=1;exitDx=0;exitDy=0;entryX=0.5;entryY=0;entryDx=0;entryDy=0;" edge="1" parent="1" source="8DN94r87sWfCBdkwbbwG-85" target="8DN94r87sWfCBdkwbbwG-82">
          <mxGeometry relative="1" as="geometry" />
        </mxCell>
        <mxCell id="8DN94r87sWfCBdkwbbwG-84" style="edgeStyle=none;rounded=0;orthogonalLoop=1;jettySize=auto;html=1;exitX=1;exitY=1;exitDx=0;exitDy=0;entryX=0.5;entryY=0;entryDx=0;entryDy=0;" edge="1" parent="1" source="8DN94r87sWfCBdkwbbwG-85" target="8DN94r87sWfCBdkwbbwG-86">
          <mxGeometry relative="1" as="geometry" />
        </mxCell>
        <mxCell id="8DN94r87sWfCBdkwbbwG-85" value="52" style="rounded=0;whiteSpace=wrap;html=1;" vertex="1" parent="1">
          <mxGeometry x="1973" y="343" width="62" height="30" as="geometry" />
        </mxCell>
        <mxCell id="8DN94r87sWfCBdkwbbwG-86" value="60" style="rounded=0;whiteSpace=wrap;html=1;" vertex="1" parent="1">
          <mxGeometry x="2035" y="410" width="62" height="30" as="geometry" />
        </mxCell>
        <mxCell id="8DN94r87sWfCBdkwbbwG-87" value="68" style="rounded=0;whiteSpace=wrap;html=1;" vertex="1" parent="1">
          <mxGeometry x="2430" y="410" width="62" height="30" as="geometry" />
        </mxCell>
        <mxCell id="8DN94r87sWfCBdkwbbwG-88" value="20" style="rounded=0;whiteSpace=wrap;html=1;" vertex="1" parent="1">
          <mxGeometry x="2193" y="410" width="62" height="30" as="geometry" />
        </mxCell>
        <mxCell id="8DN94r87sWfCBdkwbbwG-89" style="edgeStyle=none;rounded=0;orthogonalLoop=1;jettySize=auto;html=1;exitX=0;exitY=1;exitDx=0;exitDy=0;entryX=0.5;entryY=0;entryDx=0;entryDy=0;" edge="1" parent="1" source="8DN94r87sWfCBdkwbbwG-90" target="8DN94r87sWfCBdkwbbwG-88">
          <mxGeometry relative="1" as="geometry" />
        </mxCell>
        <mxCell id="8DN94r87sWfCBdkwbbwG-90" value="30" style="rounded=0;whiteSpace=wrap;html=1;" vertex="1" parent="1">
          <mxGeometry x="2244" y="343" width="62" height="30" as="geometry" />
        </mxCell>
        <mxCell id="8DN94r87sWfCBdkwbbwG-91" value="50" style="rounded=0;whiteSpace=wrap;html=1;" vertex="1" parent="1">
          <mxGeometry x="2275" y="410" width="62" height="30" as="geometry" />
        </mxCell>
        <mxCell id="8DN94r87sWfCBdkwbbwG-92" style="edgeStyle=none;rounded=0;orthogonalLoop=1;jettySize=auto;html=1;exitX=0;exitY=1;exitDx=0;exitDy=0;entryX=0.5;entryY=0;entryDx=0;entryDy=0;" edge="1" parent="1" source="8DN94r87sWfCBdkwbbwG-94" target="8DN94r87sWfCBdkwbbwG-91">
          <mxGeometry relative="1" as="geometry" />
        </mxCell>
        <mxCell id="8DN94r87sWfCBdkwbbwG-93" style="edgeStyle=none;rounded=0;orthogonalLoop=1;jettySize=auto;html=1;exitX=1;exitY=1;exitDx=0;exitDy=0;entryX=0.5;entryY=0;entryDx=0;entryDy=0;" edge="1" parent="1" source="8DN94r87sWfCBdkwbbwG-94" target="8DN94r87sWfCBdkwbbwG-95">
          <mxGeometry relative="1" as="geometry" />
        </mxCell>
        <mxCell id="8DN94r87sWfCBdkwbbwG-94" value="52" style="rounded=0;whiteSpace=wrap;html=1;" vertex="1" parent="1">
          <mxGeometry x="2306" y="343" width="62" height="30" as="geometry" />
        </mxCell>
        <mxCell id="8DN94r87sWfCBdkwbbwG-95" value="60" style="rounded=0;whiteSpace=wrap;html=1;" vertex="1" parent="1">
          <mxGeometry x="2368" y="410" width="62" height="30" as="geometry" />
        </mxCell>
        <mxCell id="8DN94r87sWfCBdkwbbwG-96" value="70" style="rounded=0;whiteSpace=wrap;html=1;" vertex="1" parent="1">
          <mxGeometry x="2492" y="410" width="62" height="30" as="geometry" />
        </mxCell>
        <mxCell id="8DN94r87sWfCBdkwbbwG-109" style="edgeStyle=none;rounded=0;orthogonalLoop=1;jettySize=auto;html=1;exitX=0;exitY=1;exitDx=0;exitDy=0;entryX=0.5;entryY=0;entryDx=0;entryDy=0;" edge="1" parent="1" source="8DN94r87sWfCBdkwbbwG-97" target="8DN94r87sWfCBdkwbbwG-105">
          <mxGeometry relative="1" as="geometry" />
        </mxCell>
        <mxCell id="8DN94r87sWfCBdkwbbwG-110" style="edgeStyle=none;rounded=0;orthogonalLoop=1;jettySize=auto;html=1;exitX=1;exitY=1;exitDx=0;exitDy=0;entryX=0.5;entryY=0;entryDx=0;entryDy=0;" edge="1" parent="1" source="8DN94r87sWfCBdkwbbwG-97" target="8DN94r87sWfCBdkwbbwG-106">
          <mxGeometry relative="1" as="geometry" />
        </mxCell>
        <mxCell id="8DN94r87sWfCBdkwbbwG-97" value="68" style="rounded=0;whiteSpace=wrap;html=1;" vertex="1" parent="1">
          <mxGeometry x="2789" y="343" width="62" height="30" as="geometry" />
        </mxCell>
        <mxCell id="8DN94r87sWfCBdkwbbwG-98" value="20" style="rounded=0;whiteSpace=wrap;html=1;" vertex="1" parent="1">
          <mxGeometry x="2578" y="411" width="62" height="30" as="geometry" />
        </mxCell>
        <mxCell id="8DN94r87sWfCBdkwbbwG-107" style="edgeStyle=none;rounded=0;orthogonalLoop=1;jettySize=auto;html=1;exitX=0;exitY=1;exitDx=0;exitDy=0;entryX=0.5;entryY=0;entryDx=0;entryDy=0;" edge="1" parent="1" source="8DN94r87sWfCBdkwbbwG-100" target="8DN94r87sWfCBdkwbbwG-98">
          <mxGeometry relative="1" as="geometry" />
        </mxCell>
        <mxCell id="8DN94r87sWfCBdkwbbwG-108" style="edgeStyle=none;rounded=0;orthogonalLoop=1;jettySize=auto;html=1;exitX=1;exitY=1;exitDx=0;exitDy=0;entryX=0.5;entryY=0;entryDx=0;entryDy=0;" edge="1" parent="1" source="8DN94r87sWfCBdkwbbwG-100" target="8DN94r87sWfCBdkwbbwG-101">
          <mxGeometry relative="1" as="geometry" />
        </mxCell>
        <mxCell id="8DN94r87sWfCBdkwbbwG-100" value="30" style="rounded=0;whiteSpace=wrap;html=1;" vertex="1" parent="1">
          <mxGeometry x="2665" y="343" width="62" height="30" as="geometry" />
        </mxCell>
        <mxCell id="8DN94r87sWfCBdkwbbwG-101" value="50" style="rounded=0;whiteSpace=wrap;html=1;" vertex="1" parent="1">
          <mxGeometry x="2680" y="409" width="62" height="30" as="geometry" />
        </mxCell>
        <mxCell id="8DN94r87sWfCBdkwbbwG-104" value="52" style="rounded=0;whiteSpace=wrap;html=1;" vertex="1" parent="1">
          <mxGeometry x="2727" y="343" width="62" height="30" as="geometry" />
        </mxCell>
        <mxCell id="8DN94r87sWfCBdkwbbwG-105" value="60" style="rounded=0;whiteSpace=wrap;html=1;" vertex="1" parent="1">
          <mxGeometry x="2773" y="409" width="62" height="30" as="geometry" />
        </mxCell>
        <mxCell id="8DN94r87sWfCBdkwbbwG-106" value="70" style="rounded=0;whiteSpace=wrap;html=1;" vertex="1" parent="1">
          <mxGeometry x="2866" y="409" width="62" height="30" as="geometry" />
        </mxCell>
        <mxCell id="8DN94r87sWfCBdkwbbwG-111" style="edgeStyle=none;rounded=0;orthogonalLoop=1;jettySize=auto;html=1;exitX=0;exitY=1;exitDx=0;exitDy=0;entryX=0.5;entryY=0;entryDx=0;entryDy=0;" edge="1" parent="1" source="8DN94r87sWfCBdkwbbwG-113" target="8DN94r87sWfCBdkwbbwG-120">
          <mxGeometry relative="1" as="geometry" />
        </mxCell>
        <mxCell id="8DN94r87sWfCBdkwbbwG-112" style="edgeStyle=none;rounded=0;orthogonalLoop=1;jettySize=auto;html=1;exitX=1;exitY=1;exitDx=0;exitDy=0;entryX=0.5;entryY=0;entryDx=0;entryDy=0;" edge="1" parent="1" source="8DN94r87sWfCBdkwbbwG-113" target="8DN94r87sWfCBdkwbbwG-121">
          <mxGeometry relative="1" as="geometry" />
        </mxCell>
        <mxCell id="8DN94r87sWfCBdkwbbwG-113" value="68" style="rounded=0;whiteSpace=wrap;html=1;" vertex="1" parent="1">
          <mxGeometry x="3159" y="341" width="62" height="30" as="geometry" />
        </mxCell>
        <mxCell id="8DN94r87sWfCBdkwbbwG-114" value="20" style="rounded=0;whiteSpace=wrap;html=1;" vertex="1" parent="1">
          <mxGeometry x="2948" y="409" width="62" height="30" as="geometry" />
        </mxCell>
        <mxCell id="8DN94r87sWfCBdkwbbwG-115" style="edgeStyle=none;rounded=0;orthogonalLoop=1;jettySize=auto;html=1;exitX=0;exitY=1;exitDx=0;exitDy=0;entryX=0.5;entryY=0;entryDx=0;entryDy=0;" edge="1" parent="1" source="8DN94r87sWfCBdkwbbwG-117" target="8DN94r87sWfCBdkwbbwG-114">
          <mxGeometry relative="1" as="geometry" />
        </mxCell>
        <mxCell id="8DN94r87sWfCBdkwbbwG-116" style="edgeStyle=none;rounded=0;orthogonalLoop=1;jettySize=auto;html=1;exitX=1;exitY=1;exitDx=0;exitDy=0;entryX=0.5;entryY=0;entryDx=0;entryDy=0;" edge="1" parent="1" source="8DN94r87sWfCBdkwbbwG-117" target="8DN94r87sWfCBdkwbbwG-118">
          <mxGeometry relative="1" as="geometry" />
        </mxCell>
        <mxCell id="8DN94r87sWfCBdkwbbwG-117" value="30" style="rounded=0;whiteSpace=wrap;html=1;" vertex="1" parent="1">
          <mxGeometry x="3035" y="341" width="62" height="30" as="geometry" />
        </mxCell>
        <mxCell id="8DN94r87sWfCBdkwbbwG-118" value="50" style="rounded=0;whiteSpace=wrap;html=1;" vertex="1" parent="1">
          <mxGeometry x="3050" y="407" width="62" height="30" as="geometry" />
        </mxCell>
        <mxCell id="8DN94r87sWfCBdkwbbwG-122" style="edgeStyle=none;rounded=0;orthogonalLoop=1;jettySize=auto;html=1;exitX=0;exitY=1;exitDx=0;exitDy=0;entryX=0.5;entryY=0;entryDx=0;entryDy=0;" edge="1" parent="1" source="8DN94r87sWfCBdkwbbwG-119" target="8DN94r87sWfCBdkwbbwG-117">
          <mxGeometry relative="1" as="geometry" />
        </mxCell>
        <mxCell id="8DN94r87sWfCBdkwbbwG-123" style="edgeStyle=none;rounded=0;orthogonalLoop=1;jettySize=auto;html=1;exitX=1;exitY=1;exitDx=0;exitDy=0;entryX=0.5;entryY=0;entryDx=0;entryDy=0;" edge="1" parent="1" source="8DN94r87sWfCBdkwbbwG-119" target="8DN94r87sWfCBdkwbbwG-113">
          <mxGeometry relative="1" as="geometry" />
        </mxCell>
        <mxCell id="8DN94r87sWfCBdkwbbwG-119" value="52" style="rounded=0;whiteSpace=wrap;html=1;" vertex="1" parent="1">
          <mxGeometry x="3097" y="267" width="62" height="30" as="geometry" />
        </mxCell>
        <mxCell id="8DN94r87sWfCBdkwbbwG-120" value="60" style="rounded=0;whiteSpace=wrap;html=1;" vertex="1" parent="1">
          <mxGeometry x="3143" y="407" width="62" height="30" as="geometry" />
        </mxCell>
        <mxCell id="8DN94r87sWfCBdkwbbwG-121" value="70" style="rounded=0;whiteSpace=wrap;html=1;" vertex="1" parent="1">
          <mxGeometry x="3236" y="407" width="62" height="30" as="geometry" />
        </mxCell>
      </root>
    </mxGraphModel>
  </diagram>
</mxfile>
